<?xml version="1.0" standalone="no"?>
<!DOCTYPE svg PUBLIC "-//W3C//DTD SVG 20010904//EN"
 "http://www.w3.org/TR/2001/REC-SVG-20010904/DTD/svg10.dtd">
<svg version="1.0" xmlns="http://www.w3.org/2000/svg"
 width="1123.000000pt" height="1123.000000pt" viewBox="0 0 1123.000000 1123.000000"
 preserveAspectRatio="xMidYMid meet">
<metadata>
Created by potrace 1.14, written by Peter Selinger 2001-2017
</metadata>
<g transform="translate(0.000000,1123.000000) scale(0.100000,-0.100000)"
fill="#000000" stroke="none">
<path d="M3424 8579 c-22 -4 -58 -15 -80 -24 -21 -10 -49 -18 -61 -19 -22 -2
-65 -34 -91 -69 -53 -69 -139 -114 -237 -123 -69 -6 -80 -9 -80 -22 -3 -33
-33 -129 -58 -179 -28 -60 -103 -143 -128 -143 -6 0 -8 -7 -5 -16 4 -9 8 -64
11 -123 3 -58 7 -117 10 -131 3 -14 8 -59 11 -100 10 -124 10 -1655 0 -1795
-11 -164 -12 -311 -2 -490 14 -245 15 -288 22 -930 3 -346 10 -638 15 -647 6
-10 5 -19 -1 -23 -15 -9 -39 -68 -62 -150 -14 -52 -20 -112 -23 -231 l-5 -161
49 -27 c90 -48 142 -128 156 -240 5 -45 17 -56 59 -56 52 0 160 -32 196 -58
19 -14 49 -42 65 -63 23 -29 37 -38 61 -39 17 0 68 -12 115 -26 120 -36 220
-34 408 10 62 14 391 17 2661 20 l995 1 64 -24 c56 -20 136 -32 236 -34 40 -1
87 7 162 27 34 9 66 15 71 14 6 -2 42 29 81 69 80 81 105 92 226 100 44 2 81
5 82 6 0 1 4 17 6 36 18 111 94 227 176 266 34 17 40 24 36 45 -3 14 -8 79
-11 145 -8 171 -10 186 -24 220 -6 17 -14 46 -16 65 -3 19 -11 62 -20 95 -15
61 -18 442 -16 1775 0 234 -1 765 -2 1180 -2 590 0 763 10 793 7 20 11 37 7
37 -3 0 0 7 7 15 7 9 10 18 7 21 -3 3 -1 18 5 33 18 47 25 90 33 216 4 50 8
109 10 132 3 41 2 43 -53 84 -32 22 -69 58 -84 78 -25 35 -54 116 -61 173 -1
15 -6 30 -9 34 -4 3 -4 12 -1 20 4 11 0 13 -18 6 -73 -26 -185 1 -247 58 -17
17 -48 56 -67 85 -32 50 -37 54 -64 49 -18 -4 -50 2 -88 16 -75 29 -185 35
-250 13 -26 -9 -52 -20 -58 -24 -13 -12 -28 -11 -20 1 9 14 -22 12 -78 -5 -41
-12 -249 -14 -1420 -14 -755 0 -1505 0 -1667 0 -343 -1 -436 3 -551 24 -68 13
-120 16 -115 6 5 -8 -1 -8 -19 -1 -61 23 -188 32 -261 19z m-364 -5503 c0 -2
-8 -10 -17 -17 -16 -13 -17 -12 -4 4 13 16 21 21 21 13z m-70 -146 c0 -5 -5
-10 -11 -10 -5 0 -7 5 -4 10 3 6 8 10 11 10 2 0 4 -4 4 -10z"/>
</g>
</svg>
